<svg xmlns="http://www.w3.org/2000/svg" viewBox="0 0 1100 680" width="1100" height="680" font-family="'Segoe UI', Arial, sans-serif">
  <defs>
    
    <linearGradient id="bgGrad" x1="0%" y1="0%" x2="100%" y2="100%">
      <stop offset="0%" style="stop-color:#0f1117;stop-opacity:1" />
      <stop offset="100%" style="stop-color:#1a1d2e;stop-opacity:1" />
    </linearGradient>
    
    <linearGradient id="orangeGrad" x1="0%" y1="0%" x2="100%" y2="100%">
      <stop offset="0%" style="stop-color:#FF6B35;stop-opacity:1" />
      <stop offset="100%" style="stop-color:#FF8C42;stop-opacity:1" />
    </linearGradient>
    
    <linearGradient id="bronzeGrad" x1="0%" y1="0%" x2="0%" y2="100%">
      <stop offset="0%" style="stop-color:#8B4513;stop-opacity:0.9" />
      <stop offset="100%" style="stop-color:#6B3410;stop-opacity:0.7" />
    </linearGradient>
    
    <linearGradient id="silverGrad" x1="0%" y1="0%" x2="0%" y2="100%">
      <stop offset="0%" style="stop-color:#4a5568;stop-opacity:0.9" />
      <stop offset="100%" style="stop-color:#2d3748;stop-opacity:0.7" />
    </linearGradient>
    
    <linearGradient id="goldGrad" x1="0%" y1="0%" x2="0%" y2="100%">
      <stop offset="0%" style="stop-color:#B8860B;stop-opacity:0.9" />
      <stop offset="100%" style="stop-color:#8B6914;stop-opacity:0.7" />
    </linearGradient>
    
    <linearGradient id="s3Grad" x1="0%" y1="0%" x2="0%" y2="100%">
      <stop offset="0%" style="stop-color:#2d6a4f;stop-opacity:0.9" />
      <stop offset="100%" style="stop-color:#1b4332;stop-opacity:0.7" />
    </linearGradient>
    
    <linearGradient id="servingGrad" x1="0%" y1="0%" x2="0%" y2="100%">
      <stop offset="0%" style="stop-color:#1a365d;stop-opacity:0.9" />
      <stop offset="100%" style="stop-color:#0f2040;stop-opacity:0.7" />
    </linearGradient>
    
    <marker id="arrowOrange" markerWidth="10" markerHeight="7" refX="9" refY="3.5" orient="auto">
      <polygon points="0 0, 10 3.5, 0 7" fill="#FF6B35"/>
    </marker>
    <marker id="arrowGray" markerWidth="10" markerHeight="7" refX="9" refY="3.5" orient="auto">
      <polygon points="0 0, 10 3.5, 0 7" fill="#718096"/>
    </marker>
    <marker id="arrowGold" markerWidth="10" markerHeight="7" refX="9" refY="3.5" orient="auto">
      <polygon points="0 0, 10 3.5, 0 7" fill="#D4AF37"/>
    </marker>
    
    <filter id="glow">
      <feGaussianBlur stdDeviation="3" result="coloredBlur"/>
      <feMerge>
        <feMergeNode in="coloredBlur"/>
        <feMergeNode in="SourceGraphic"/>
      </feMerge>
    </filter>
    <filter id="subtleGlow">
      <feGaussianBlur stdDeviation="1.5" result="coloredBlur"/>
      <feMerge>
        <feMergeNode in="coloredBlur"/>
        <feMergeNode in="SourceGraphic"/>
      </feMerge>
    </filter>
  </defs>

  
  <rect width="1100" height="680" fill="url(#bgGrad)" rx="12"/>

  
  <g opacity="0.04" stroke="#ffffff" stroke-width="1">
    <line x1="0" y1="85" x2="1100" y2="85"/>
    <line x1="0" y1="170" x2="1100" y2="170"/>
    <line x1="0" y1="255" x2="1100" y2="255"/>
    <line x1="0" y1="340" x2="1100" y2="340"/>
    <line x1="0" y1="425" x2="1100" y2="425"/>
    <line x1="0" y1="510" x2="1100" y2="510"/>
    <line x1="0" y1="595" x2="1100" y2="595"/>
  </g>

  
  <text x="550" y="38" text-anchor="middle" font-size="22" font-weight="700" fill="#ffffff" letter-spacing="1">FMCG Lakehouse Consolidation</text>
  <text x="550" y="60" text-anchor="middle" font-size="13" fill="#718096" letter-spacing="2">MEDALLION ARCHITECTURE  ·  DATABRICKS  ·  DELTA LAKE  ·  AMAZON S3</text>
  <line x1="80" y1="72" x2="1020" y2="72" stroke="#FF6B35" stroke-width="1.5" opacity="0.5"/>

  
  
  

  
  <rect x="28" y="90" width="155" height="490" rx="10" fill="url(#s3Grad)" stroke="#2d8f60" stroke-width="1.5" opacity="0.9"/>
  <rect x="28" y="90" width="155" height="36" rx="10" fill="#2d8f60" opacity="0.6"/>
  <rect x="28" y="110" width="155" height="16" fill="#2d8f60" opacity="0.6"/>

  
  <ellipse cx="74" cy="107" rx="14" ry="5" fill="#52c78a" opacity="0.9"/>
  <rect x="60" y="107" width="28" height="18" fill="#52c78a" opacity="0.8"/>
  <ellipse cx="74" cy="125" rx="14" ry="5" fill="#3daa72" opacity="0.9"/>

  <text x="110" y="113" text-anchor="middle" font-size="13" font-weight="700" fill="#ffffff">Amazon S3</text>

  
  <rect x="42" y="142" width="127" height="90" rx="7" fill="#1b4332" stroke="#2d8f60" stroke-width="1" opacity="0.8"/>
  <text x="105" y="162" text-anchor="middle" font-size="11" font-weight="600" fill="#52c78a">📁 RAW Data</text>
  <text x="105" y="180" text-anchor="middle" font-size="10" fill="#a0c4b0">orders/landing/</text>
  <text x="105" y="196" text-anchor="middle" font-size="10" fill="#a0c4b0">customers/</text>
  <text x="105" y="212" text-anchor="middle" font-size="10" fill="#a0c4b0">products/</text>
  <text x="105" y="228" text-anchor="middle" font-size="10" fill="#a0c4b0">gross_price/</text>

  
  <rect x="42" y="248" width="127" height="60" rx="7" fill="#1b4332" stroke="#2d8f60" stroke-width="1" opacity="0.8"/>
  <text x="105" y="268" text-anchor="middle" font-size="11" font-weight="600" fill="#52c78a">📦 Archive</text>
  <text x="105" y="285" text-anchor="middle" font-size="10" fill="#a0c4b0">orders/processed/</text>
  <text x="105" y="300" text-anchor="middle" font-size="10" fill="#a0c4b0">(after ingestion)</text>

  
  <text x="105" y="335" text-anchor="middle" font-size="10" fill="#718096">CSV files ingested</text>
  <text x="105" y="350" text-anchor="middle" font-size="10" fill="#718096">via Spark reader</text>

  
  
  

  
  <rect x="215" y="148" width="110" height="110" rx="10" fill="#1e1e2e" stroke="#FF6B35" stroke-width="1.5" filter="url(#subtleGlow)"/>

  
  <polygon points="260,175 275,175 265,198 278,198 255,230 261,208 248,208" fill="#FF6B35" opacity="0.9" filter="url(#glow)"/>

  <text x="270" y="248" text-anchor="middle" font-size="11" font-weight="700" fill="#FF6B35">Lakeflow</text>
  <text x="270" y="262" text-anchor="middle" font-size="10" fill="#718096">Jobs</text>

  
  
  

  
  <rect x="355" y="88" width="490" height="500" rx="12" fill="#12131f" stroke="#3a3d5c" stroke-width="1.5"/>
  <rect x="355" y="88" width="490" height="30" rx="12" fill="#1e2035" opacity="0.8"/>
  <rect x="355" y="103" width="490" height="15" fill="#1e2035" opacity="0.8"/>

  
  <polygon points="395,96 402,92 409,96 409,104 402,108 395,104" fill="none" stroke="#e879f9" stroke-width="1.5"/>
  <circle cx="402" cy="100" r="3" fill="#e879f9"/>

  <text x="422" y="102" text-anchor="start" font-size="12" font-weight="700" fill="#e879f9">Unity Catalog  ·  fmcg</text>

  <text x="770" y="102" text-anchor="middle" font-size="11" font-weight="600" fill="#8892b0">Child Company</text>

  
  <rect x="370" y="128" width="140" height="195" rx="8" fill="url(#bronzeGrad)" stroke="#cd7f32" stroke-width="1.2"/>
  <rect x="370" y="128" width="140" height="24" rx="8" fill="#cd7f32" opacity="0.5"/>
  <rect x="370" y="142" width="140" height="10" fill="#cd7f32" opacity="0.5"/>
  <text x="440" y="143" text-anchor="middle" font-size="12" font-weight="700" fill="#ffcc88">🥉 Bronze</text>

  <rect x="379" y="158" width="122" height="26" rx="5" fill="#5c3010" opacity="0.7"/>
  <text x="440" y="175" text-anchor="middle" font-size="10" fill="#ffcc88">orders</text>

  <rect x="379" y="190" width="122" height="26" rx="5" fill="#5c3010" opacity="0.7"/>
  <text x="440" y="207" text-anchor="middle" font-size="10" fill="#ffcc88">customers</text>

  <rect x="379" y="222" width="122" height="26" rx="5" fill="#5c3010" opacity="0.7"/>
  <text x="440" y="239" text-anchor="middle" font-size="10" fill="#ffcc88">products</text>

  <rect x="379" y="254" width="122" height="26" rx="5" fill="#5c3010" opacity="0.7"/>
  <text x="440" y="271" text-anchor="middle" font-size="10" fill="#ffcc88">gross_price</text>

  <text x="440" y="306" text-anchor="middle" font-size="9" fill="#9c6a3a">+ staging_orders</text>
  <text x="440" y="320" text-anchor="middle" font-size="9" fill="#9c6a3a">(incremental)</text>

  
  <rect x="530" y="128" width="140" height="195" rx="8" fill="url(#silverGrad)" stroke="#718096" stroke-width="1.2"/>
  <rect x="530" y="128" width="140" height="24" rx="8" fill="#718096" opacity="0.5"/>
  <rect x="530" y="142" width="140" height="10" fill="#718096" opacity="0.5"/>
  <text x="600" y="143" text-anchor="middle" font-size="12" font-weight="700" fill="#e2e8f0">🥈 Silver</text>

  <rect x="539" y="158" width="122" height="26" rx="5" fill="#2d3748" opacity="0.8"/>
  <text x="600" y="175" text-anchor="middle" font-size="10" fill="#e2e8f0">orders (deduped)</text>

  <rect x="539" y="190" width="122" height="26" rx="5" fill="#2d3748" opacity="0.8"/>
  <text x="600" y="207" text-anchor="middle" font-size="10" fill="#e2e8f0">customers (cleaned)</text>

  <rect x="539" y="222" width="122" height="26" rx="5" fill="#2d3748" opacity="0.8"/>
  <text x="600" y="239" text-anchor="middle" font-size="10" fill="#e2e8f0">products (cleaned)</text>

  <rect x="539" y="254" width="122" height="26" rx="5" fill="#2d3748" opacity="0.8"/>
  <text x="600" y="271" text-anchor="middle" font-size="10" fill="#e2e8f0">gross_price</text>

  <text x="600" y="306" text-anchor="middle" font-size="9" fill="#718096">+ staging_orders</text>
  <text x="600" y="320" text-anchor="middle" font-size="9" fill="#718096">(incremental)</text>

  
  <rect x="690" y="128" width="140" height="195" rx="8" fill="url(#goldGrad)" stroke="#D4AF37" stroke-width="1.2"/>
  <rect x="690" y="128" width="140" height="24" rx="8" fill="#D4AF37" opacity="0.5"/>
  <rect x="690" y="142" width="140" height="10" fill="#D4AF37" opacity="0.5"/>
  <text x="760" y="143" text-anchor="middle" font-size="12" font-weight="700" fill="#fef3c7">🥇 Child Gold</text>

  <rect x="699" y="158" width="122" height="26" rx="5" fill="#5c4a00" opacity="0.8"/>
  <text x="760" y="175" text-anchor="middle" font-size="10" fill="#fef3c7">sb_fact_orders</text>

  <rect x="699" y="190" width="122" height="26" rx="5" fill="#5c4a00" opacity="0.8"/>
  <text x="760" y="207" text-anchor="middle" font-size="10" fill="#fef3c7">sb_dim_customers</text>

  <rect x="699" y="222" width="122" height="26" rx="5" fill="#5c4a00" opacity="0.8"/>
  <text x="760" y="239" text-anchor="middle" font-size="10" fill="#fef3c7">sb_dim_products</text>

  <rect x="699" y="254" width="122" height="26" rx="5" fill="#5c4a00" opacity="0.8"/>
  <text x="760" y="271" text-anchor="middle" font-size="10" fill="#fef3c7">sb_dim_gross_price</text>

  
  <text x="513" y="215" text-anchor="middle" font-size="9" fill="#718096" transform="rotate(-90,513,215)">TRANSFORM</text>
  <text x="673" y="215" text-anchor="middle" font-size="9" fill="#D4AF37" transform="rotate(-90,673,215)">SELECT / AGG</text>

  
  <line x1="511" y1="225" x2="528" y2="225" stroke="#718096" stroke-width="1.5" marker-end="url(#arrowGray)"/>
  <line x1="671" y1="225" x2="688" y2="225" stroke="#D4AF37" stroke-width="1.5" marker-end="url(#arrowGold)"/>

  
  
  

  
  <rect x="370" y="355" width="460" height="215" rx="10" fill="#0f1929" stroke="#D4AF37" stroke-width="2"/>
  <rect x="370" y="355" width="460" height="30" rx="10" fill="#D4AF37" opacity="0.25"/>
  <rect x="370" y="373" width="460" height="12" fill="#D4AF37" opacity="0.25"/>

  <text x="440" y="373" text-anchor="middle" font-size="10" fill="#D4AF37" opacity="0.7">fmcg.gold</text>
  <text x="630" y="373" text-anchor="middle" font-size="12" font-weight="700" fill="#D4AF37">⭐ Parent Gold Layer  (Consolidated)</text>

  
  <rect x="383" y="390" width="130" height="48" rx="6" fill="#1a2540" stroke="#D4AF37" stroke-width="1"/>
  <text x="448" y="410" text-anchor="middle" font-size="10" font-weight="600" fill="#fef3c7">fact_orders</text>
  <text x="448" y="427" text-anchor="middle" font-size="9" fill="#8892b0">month × product</text>
  <text x="448" y="440" text-anchor="middle" font-size="9" fill="#8892b0">× customer</text>

  <rect x="523" y="390" width="130" height="48" rx="6" fill="#1a2540" stroke="#D4AF37" stroke-width="1"/>
  <text x="588" y="410" text-anchor="middle" font-size="10" font-weight="600" fill="#fef3c7">dim_customers</text>
  <text x="588" y="427" text-anchor="middle" font-size="9" fill="#8892b0">unified parent</text>
  <text x="588" y="440" text-anchor="middle" font-size="9" fill="#8892b0">+ child</text>

  <rect x="663" y="390" width="130" height="48" rx="6" fill="#1a2540" stroke="#D4AF37" stroke-width="1"/>
  <text x="728" y="410" text-anchor="middle" font-size="10" font-weight="600" fill="#fef3c7">dim_products</text>
  <text x="728" y="427" text-anchor="middle" font-size="9" fill="#8892b0">unified product</text>
  <text x="728" y="440" text-anchor="middle" font-size="9" fill="#8892b0">catalog</text>

  
  <rect x="383" y="448" width="200" height="48" rx="6" fill="#1a2540" stroke="#D4AF37" stroke-width="1"/>
  <text x="483" y="468" text-anchor="middle" font-size="10" font-weight="600" fill="#fef3c7">dim_gross_price</text>
  <text x="483" y="485" text-anchor="middle" font-size="9" fill="#8892b0">product × year · price_inr</text>
  <text x="483" y="498" text-anchor="middle" font-size="9" fill="#8892b0">(latest non-zero)</text>

  <rect x="593" y="448" width="200" height="48" rx="6" fill="#1a2540" stroke="#D4AF37" stroke-width="1"/>
  <text x="693" y="468" text-anchor="middle" font-size="10" font-weight="600" fill="#fef3c7">dim_date</text>
  <text x="693" y="485" text-anchor="middle" font-size="9" fill="#8892b0">monthly calendar</text>
  <text x="693" y="498" text-anchor="middle" font-size="9" fill="#8892b0">2024 – 2025</text>

  
  <text x="600" y="348" text-anchor="middle" font-size="10" font-weight="600" fill="#FF6B35">DELTA MERGE (upsert)</text>

  
  <line x1="760" y1="325" x2="760" y2="353" stroke="#FF6B35" stroke-width="1.5" stroke-dasharray="4,3" marker-end="url(#arrowOrange)"/>
  <line x1="600" y1="325" x2="600" y2="353" stroke="#FF6B35" stroke-width="1.5" stroke-dasharray="4,3" marker-end="url(#arrowOrange)"/>
  <line x1="440" y1="325" x2="440" y2="353" stroke="#FF6B35" stroke-width="1.5" stroke-dasharray="4,3" marker-end="url(#arrowOrange)"/>

  
  
  

  <rect x="880" y="88" width="192" height="500" rx="12" fill="url(#servingGrad)" stroke="#3b82f6" stroke-width="1.5"/>
  <rect x="880" y="88" width="192" height="30" rx="12" fill="#1e40af" opacity="0.5"/>
  <rect x="880" y="103" width="192" height="15" fill="#1e40af" opacity="0.5"/>
  <text x="976" y="109" text-anchor="middle" font-size="13" font-weight="700" fill="#93c5fd">Serving Layer</text>

  
  <rect x="894" y="130" width="164" height="160" rx="8" fill="#0f1929" stroke="#3b82f6" stroke-width="1" opacity="0.9"/>

  
  <rect x="906" y="143" width="35" height="25" rx="3" fill="#3b82f6" opacity="0.8"/>
  <rect x="947" y="143" width="35" height="25" rx="3" fill="#1d4ed8" opacity="0.7"/>
  <rect x="988" y="143" width="35" height="25" rx="3" fill="#2563eb" opacity="0.6"/>
  <rect x="906" y="174" width="55" height="25" rx="3" fill="#1d4ed8" opacity="0.7"/>
  <rect x="967" y="174" width="55" height="25" rx="3" fill="#3b82f6" opacity="0.8"/>
  <rect x="906" y="205" width="35" height="18" rx="3" fill="#2563eb" opacity="0.6"/>
  <rect x="947" y="205" width="75" height="18" rx="3" fill="#1d4ed8" opacity="0.7"/>

  <text x="976" y="242" text-anchor="middle" font-size="12" font-weight="700" fill="#93c5fd">Dashboards</text>
  <text x="976" y="258" text-anchor="middle" font-size="10" fill="#718096">Sales performance</text>
  <text x="976" y="272" text-anchor="middle" font-size="10" fill="#718096">Product analytics</text>
  <text x="976" y="286" text-anchor="middle" font-size="10" fill="#718096">Customer insights</text>

  
  <rect x="894" y="310" width="164" height="150" rx="8" fill="#0f1929" stroke="#a855f7" stroke-width="1" opacity="0.9"/>

  
  <path d="M976,325 L980,338 L993,338 L983,346 L987,359 L976,351 L965,359 L969,346 L959,338 L972,338 Z" fill="#a855f7" opacity="0.9" filter="url(#glow)"/>

  <text x="976" y="378" text-anchor="middle" font-size="12" font-weight="700" fill="#c084fc">Genie</text>
  <text x="976" y="396" text-anchor="middle" font-size="10" fill="#718096">Natural language</text>
  <text x="976" y="412" text-anchor="middle" font-size="10" fill="#718096">querying on Gold</text>
  <text x="976" y="430" text-anchor="middle" font-size="10" fill="#718096">tables</text>
  <text x="976" y="450" text-anchor="middle" font-size="10" fill="#718096">"Show me top 10</text>
  <text x="976" y="464" text-anchor="middle" font-size="10" fill="#718096">products this quarter"</text>

  
  
  

  
  <line x1="185" y1="203" x2="213" y2="203" stroke="#FF6B35" stroke-width="2" marker-end="url(#arrowOrange)"/>

  
  <line x1="326" y1="203" x2="368" y2="225" stroke="#FF6B35" stroke-width="2" marker-end="url(#arrowOrange)"/>

  
  <line x1="831" y1="240" x2="877" y2="240" stroke="#D4AF37" stroke-width="2" marker-end="url(#arrowGold)"/>
  <line x1="831" y1="450" x2="877" y2="390" stroke="#D4AF37" stroke-width="2" marker-end="url(#arrowGold)"/>

  
  
  

  <rect x="28" y="598" width="1044" height="66" rx="8" fill="#0d0f1a" stroke="#1e2035" stroke-width="1"/>

  <text x="550" y="617" text-anchor="middle" font-size="11" font-weight="700" fill="#718096" letter-spacing="2">KEY DESIGN PRINCIPLES</text>

  
  <rect x="40" y="627" width="155" height="24" rx="12" fill="#1a1d2e" stroke="#FF6B35" stroke-width="1"/>
  <text x="117" y="643" text-anchor="middle" font-size="10" fill="#FF6B35">Delta MERGE (Upsert)</text>

  <rect x="205" y="627" width="165" height="24" rx="12" fill="#1a1d2e" stroke="#D4AF37" stroke-width="1"/>
  <text x="287" y="643" text-anchor="middle" font-size="10" fill="#D4AF37">Staging for Incremental Load</text>

  <rect x="380" y="627" width="170" height="24" rx="12" fill="#1a1d2e" stroke="#52c78a" stroke-width="1"/>
  <text x="465" y="643" text-anchor="middle" font-size="10" fill="#52c78a">SHA-256 Surrogate Keys</text>

  <rect x="560" y="627" width="165" height="24" rx="12" fill="#1a1d2e" stroke="#93c5fd" stroke-width="1"/>
  <text x="642" y="643" text-anchor="middle" font-size="10" fill="#93c5fd">Daily → Monthly Aggregation</text>

  <rect x="735" y="627" width="160" height="24" rx="12" fill="#1a1d2e" stroke="#c084fc" stroke-width="1"/>
  <text x="815" y="643" text-anchor="middle" font-size="10" fill="#c084fc">Change Data Feed Enabled</text>

  <rect x="905" y="627" width="155" height="24" rx="12" fill="#1a1d2e" stroke="#e879f9" stroke-width="1"/>
  <text x="982" y="643" text-anchor="middle" font-size="10" fill="#e879f9">Multi-Format Date Parsing</text>

  
  <text x="1072" y="50" text-anchor="end" font-size="10" fill="#FF6B35" opacity="0.7">Databricks Free Edition</text>
</svg>
